<svg xmlns="http://www.w3.org/2000/svg" xmlns:xlink="http://www.w3.org/1999/xlink" width="500" zoomAndPan="magnify" viewBox="0 0 375 374.999991" height="500" preserveAspectRatio="xMidYMid meet" version="1.0"><defs><g/><clipPath id="de71f89786"><path d="M 0 21.464844 L 375 21.464844 L 375 353.714844 L 0 353.714844 Z M 0 21.464844 " clip-rule="nonzero"/></clipPath></defs><g clip-path="url(#de71f89786)"><path fill="#currentColor" d="M 4.054688 235.441406 C 3.96875 235.664062 3.949219 235.890625 3.992188 236.125 C 4.035156 236.359375 4.132812 236.5625 4.292969 236.742188 L 10.320312 243.003906 L 18.9375 251.167969 C 19.417969 251.558594 21.308594 253.835938 24.601562 257.996094 C 25.808594 259.421875 27.09375 260.777344 28.445312 262.0625 C 30.625 264.058594 34.769531 267.125 40.878906 271.261719 C 41.644531 271.617188 42.25 271.402344 42.695312 270.621094 C 42.796875 270.359375 42.8125 270.097656 42.738281 269.828125 C 42.664062 269.558594 42.519531 269.335938 42.300781 269.164062 C 35.828125 264.773438 31.617188 261.625 29.667969 259.722656 C 28.824219 258.90625 27.664062 257.648438 26.191406 255.949219 C 23.375 252.347656 21.585938 250.183594 20.820312 249.453125 L 12.097656 241.183594 L 6.121094 234.976562 C 5.308594 234.386719 4.621094 234.539062 4.058594 235.433594 M 370.917969 136.726562 C 371 136.507812 371.023438 136.277344 370.980469 136.046875 C 370.9375 135.8125 370.835938 135.605469 370.679688 135.429688 L 364.648438 129.164062 L 356.03125 121 C 355.550781 120.609375 353.664062 118.335938 350.367188 114.171875 C 349.160156 112.746094 347.878906 111.390625 346.523438 110.105469 C 344.347656 108.109375 340.203125 105.042969 334.09375 100.90625 C 333.328125 100.550781 332.722656 100.765625 332.273438 101.546875 C 332.175781 101.808594 332.160156 102.074219 332.234375 102.339844 C 332.304688 102.609375 332.453125 102.832031 332.671875 103.003906 C 339.144531 107.394531 343.355469 110.542969 345.300781 112.445312 C 346.148438 113.261719 347.308594 114.519531 348.78125 116.21875 C 351.59375 119.820312 353.386719 121.988281 354.152344 122.714844 L 362.875 130.984375 L 368.851562 137.191406 C 369.664062 137.78125 370.351562 137.628906 370.914062 136.734375 M 4.707031 236.597656 C 12.253906 239.378906 17.640625 242.09375 20.867188 244.75 C 26.003906 248.835938 30.28125 253.679688 33.707031 259.28125 C 36.992188 264.996094 38.839844 268.070312 39.246094 268.5 C 34.101562 266.476562 30.78125 265.066406 29.285156 264.269531 C 27.089844 263.175781 25.027344 261.871094 23.09375 260.355469 C 19.195312 257.296875 15.691406 253.832031 12.589844 249.964844 C 11.539062 248.632812 10.578125 247.242188 9.703125 245.789062 C 6.90625 240.367188 5.242188 237.308594 4.71875 236.617188 M 0.117188 233.984375 C -0.0078125 234.296875 0.0234375 234.597656 0.210938 234.878906 C 1.203125 235.902344 2.050781 237.035156 2.757812 238.277344 C 3.226562 238.914062 4.757812 241.75 7.347656 246.785156 C 8.015625 247.941406 8.746094 249.058594 9.535156 250.136719 C 11.957031 253.480469 15.144531 256.878906 19.101562 260.332031 C 22.316406 263.261719 25.910156 265.605469 29.882812 267.371094 L 42.054688 272.429688 C 42.210938 272.480469 42.367188 272.503906 42.53125 272.496094 C 42.691406 272.484375 42.847656 272.445312 42.996094 272.378906 C 43.140625 272.308594 43.273438 272.21875 43.382812 272.097656 C 43.496094 271.980469 43.582031 271.847656 43.640625 271.695312 C 43.976562 270.65625 43.320312 269.929688 41.683594 269.511719 C 41.914062 269.308594 42.054688 269.054688 42.113281 268.753906 C 42.171875 268.453125 42.132812 268.164062 41.992188 267.890625 C 41.359375 267.09375 40.773438 266.261719 40.242188 265.394531 L 36.027344 258.207031 L 34.242188 255.453125 C 31.507812 251.449219 28.324219 247.835938 24.699219 244.617188 C 21.476562 241.601562 17.160156 238.957031 11.742188 236.679688 C 7.257812 234.765625 4.109375 233.597656 2.296875 233.175781 C 1.308594 232.824219 0.589844 233.074219 0.140625 233.929688 M 370.265625 135.574219 C 362.71875 132.792969 357.332031 130.074219 354.101562 127.417969 C 348.96875 123.332031 344.691406 118.488281 341.265625 112.886719 C 337.976562 107.171875 336.132812 104.101562 335.726562 103.671875 C 340.871094 105.691406 344.191406 107.101562 345.683594 107.898438 C 347.882812 108.992188 349.945312 110.296875 351.875 111.8125 C 355.777344 114.875 359.277344 118.335938 362.382812 122.203125 C 363.433594 123.535156 364.394531 124.925781 365.265625 126.378906 C 368.066406 131.804688 369.730469 134.859375 370.253906 135.554688 M 374.855469 138.1875 C 374.980469 137.871094 374.949219 137.570312 374.761719 137.289062 C 373.769531 136.265625 372.921875 135.132812 372.214844 133.894531 C 371.746094 133.253906 370.214844 130.417969 367.628906 125.382812 C 366.957031 124.226562 366.226562 123.109375 365.4375 122.03125 C 363.015625 118.691406 359.828125 115.289062 355.871094 111.835938 C 352.65625 108.910156 349.058594 106.5625 345.085938 104.800781 L 332.914062 99.742188 C 332.761719 99.6875 332.601562 99.667969 332.441406 99.675781 C 332.277344 99.683594 332.125 99.722656 331.976562 99.792969 C 331.828125 99.859375 331.699219 99.953125 331.585938 100.070312 C 331.476562 100.1875 331.390625 100.324219 331.328125 100.472656 C 330.996094 101.511719 331.648438 102.242188 333.289062 102.660156 C 333.058594 102.863281 332.914062 103.117188 332.855469 103.417969 C 332.800781 103.71875 332.839844 104.003906 332.980469 104.277344 C 333.613281 105.078125 334.195312 105.910156 334.730469 106.777344 L 338.945312 113.964844 L 340.730469 116.714844 C 343.464844 120.722656 346.644531 124.332031 350.269531 127.554688 C 353.492188 130.566406 357.8125 133.210938 363.226562 135.492188 C 367.714844 137.402344 370.863281 138.570312 372.675781 138.996094 C 373.664062 139.347656 374.382812 139.09375 374.832031 138.242188 M 48.1875 201.394531 C 47.863281 201.398438 47.578125 201.511719 47.339844 201.734375 C 47.101562 201.960938 46.96875 202.234375 46.941406 202.558594 C 46.933594 202.664062 46.9375 202.773438 46.957031 202.878906 C 47.183594 203.746094 47.351562 204.625 47.46875 205.515625 C 47.542969 206.105469 47.597656 207.023438 47.632812 208.261719 C 47.597656 211.988281 47.457031 214.523438 47.207031 215.875 C 47.089844 216.585938 46.925781 217.289062 46.71875 217.980469 C 45.441406 221.714844 44.671875 224.148438 44.410156 225.289062 C 43.941406 226.9375 43.515625 228.652344 43.136719 230.4375 C 42.878906 231.507812 42.402344 234.121094 41.707031 238.28125 C 40.945312 243.226562 40.507812 246.507812 40.398438 248.128906 C 40.066406 252.734375 40.117188 257.332031 40.558594 261.925781 C 40.820312 264 41.105469 265.777344 41.414062 267.261719 C 41.515625 267.542969 41.695312 267.765625 41.953125 267.917969 C 42.210938 268.074219 42.488281 268.132812 42.785156 268.089844 C 43.085938 268.050781 43.335938 267.917969 43.542969 267.695312 C 43.746094 267.476562 43.859375 267.214844 43.878906 266.914062 L 43.308594 263.332031 C 43.183594 262.480469 43.097656 261.8125 43.050781 261.316406 C 42.890625 259.71875 42.789062 257.925781 42.75 255.941406 C 42.691406 253.425781 42.722656 251.335938 42.84375 249.667969 C 42.917969 248.207031 43.089844 246.496094 43.363281 244.539062 C 43.988281 239.730469 44.777344 235.054688 45.722656 230.515625 C 46.105469 228.714844 46.664062 226.570312 47.394531 224.082031 C 47.449219 223.8125 47.957031 222.269531 48.921875 219.449219 L 49.359375 217.960938 C 49.675781 216.726562 49.878906 215.46875 49.964844 214.195312 C 50.253906 210.164062 50.25 207.066406 49.949219 204.898438 C 49.824219 203.949219 49.625 203.015625 49.347656 202.101562 C 49.238281 201.882812 49.082031 201.710938 48.875 201.582031 C 48.667969 201.457031 48.441406 201.394531 48.199219 201.394531 M 326.78125 170.777344 C 327.109375 170.773438 327.390625 170.660156 327.628906 170.433594 C 327.867188 170.210938 328 169.9375 328.027344 169.613281 C 328.035156 169.507812 328.03125 169.398438 328.011719 169.292969 C 327.789062 168.425781 327.617188 167.546875 327.503906 166.65625 C 327.425781 166.066406 327.371094 165.148438 327.339844 163.910156 C 327.371094 160.183594 327.511719 157.648438 327.761719 156.296875 C 327.878906 155.582031 328.042969 154.882812 328.253906 154.191406 C 329.53125 150.457031 330.296875 148.023438 330.558594 146.882812 C 331.027344 145.234375 331.453125 143.515625 331.832031 141.734375 C 332.089844 140.664062 332.566406 138.050781 333.261719 133.890625 C 334.023438 128.945312 334.460938 125.660156 334.570312 124.039062 C 334.90625 119.4375 334.851562 114.839844 334.414062 110.246094 C 334.152344 108.171875 333.867188 106.394531 333.558594 104.910156 C 333.457031 104.628906 333.277344 104.40625 333.019531 104.25 C 332.761719 104.09375 332.484375 104.039062 332.183594 104.078125 C 331.886719 104.121094 331.632812 104.253906 331.429688 104.472656 C 331.222656 104.695312 331.109375 104.957031 331.09375 105.257812 L 331.660156 108.839844 C 331.785156 109.6875 331.871094 110.359375 331.921875 110.851562 C 332.082031 112.453125 332.179688 114.246094 332.21875 116.226562 C 332.277344 118.742188 332.246094 120.835938 332.125 122.503906 C 332.050781 123.964844 331.878906 125.671875 331.609375 127.628906 C 330.980469 132.441406 330.195312 137.117188 329.25 141.65625 C 328.863281 143.457031 328.304688 145.601562 327.574219 148.085938 C 327.523438 148.359375 327.011719 149.902344 326.046875 152.71875 L 325.609375 154.210938 C 325.292969 155.445312 325.09375 156.699219 325.007812 157.972656 C 324.714844 162.007812 324.71875 165.105469 325.019531 167.269531 C 325.144531 168.21875 325.347656 169.152344 325.625 170.070312 C 325.730469 170.289062 325.890625 170.460938 326.097656 170.585938 C 326.304688 170.714844 326.527344 170.777344 326.769531 170.777344 M 47.363281 202.953125 C 48.285156 205.957031 49.007812 209.007812 49.53125 212.105469 C 50.527344 217.371094 51.066406 220.914062 51.152344 222.734375 C 51.371094 225.082031 51.320312 229.460938 51 235.867188 C 50.917969 238.285156 50.621094 240.679688 50.113281 243.042969 C 49.785156 244.484375 49.359375 245.898438 48.84375 247.285156 L 45.078125 256.40625 L 41.683594 265.785156 C 39.21875 257.507812 37.800781 250.578125 37.433594 244.992188 C 37.148438 239.796875 37.59375 234.660156 38.765625 229.589844 C 39.085938 228.234375 39.59375 226.539062 40.292969 224.507812 C 41.042969 222.246094 42.332031 218.738281 44.167969 213.988281 L 45.316406 210.632812 C 45.6875 209.460938 45.957031 208.570312 46.113281 207.953125 L 47.335938 203.0625 M 46.773438 197.5625 C 46.53125 197.550781 46.3125 197.613281 46.113281 197.757812 C 45.917969 197.898438 45.785156 198.085938 45.722656 198.324219 C 45.402344 200.421875 44.535156 204.039062 43.113281 209.167969 C 42.683594 210.539062 42.246094 211.832031 41.808594 213.042969 L 38.566406 221.738281 C 37.71875 224.117188 37.128906 225.914062 36.789062 227.132812 C 35.726562 231 35.089844 234.9375 34.882812 238.945312 C 34.546875 243.855469 35.09375 249.554688 36.527344 256.042969 C 37.824219 261.445312 38.914062 265.589844 39.796875 268.46875 C 39.890625 268.71875 40.042969 268.925781 40.261719 269.082031 C 40.476562 269.238281 40.71875 269.324219 40.988281 269.332031 C 40.816406 270.351562 40.855469 270.992188 41.113281 271.261719 C 41.246094 271.457031 41.417969 271.601562 41.632812 271.699219 C 41.847656 271.796875 42.074219 271.832031 42.308594 271.804688 C 42.542969 271.777344 42.753906 271.691406 42.9375 271.546875 C 43.125 271.402344 43.261719 271.21875 43.34375 271 C 43.550781 268.773438 43.816406 267.261719 44.140625 266.457031 L 47.390625 257.484375 C 50.179688 250.902344 51.65625 247.226562 51.8125 246.457031 C 52.789062 243.375 53.347656 240.21875 53.484375 236.988281 C 53.777344 231.378906 53.882812 227.304688 53.792969 224.765625 C 53.800781 222.910156 53.5 220.144531 52.890625 216.464844 C 50.839844 203.90625 48.808594 197.605469 46.792969 197.566406 M 327.609375 169.21875 C 326.6875 166.214844 325.964844 163.160156 325.441406 160.0625 C 324.445312 154.800781 323.902344 151.257812 323.820312 149.433594 C 323.601562 147.085938 323.652344 142.710938 323.96875 136.300781 C 324.050781 133.882812 324.347656 131.488281 324.855469 129.125 C 325.1875 127.683594 325.609375 126.269531 326.128906 124.886719 L 329.890625 115.761719 L 333.285156 106.382812 C 335.75 114.660156 337.167969 121.59375 337.539062 127.175781 C 337.824219 132.375 337.378906 137.507812 336.203125 142.578125 C 335.886719 143.933594 335.378906 145.628906 334.679688 147.664062 C 333.929688 149.921875 332.636719 153.429688 330.800781 158.183594 L 329.65625 161.535156 C 329.28125 162.707031 329.015625 163.597656 328.855469 164.214844 L 327.636719 169.105469 M 328.195312 174.605469 C 328.441406 174.617188 328.660156 174.554688 328.855469 174.410156 C 329.054688 174.269531 329.1875 174.082031 329.25 173.847656 C 329.566406 171.746094 330.4375 168.128906 331.855469 163.003906 C 332.289062 161.628906 332.722656 160.335938 333.164062 159.125 L 336.40625 150.429688 C 337.25 148.050781 337.84375 146.253906 338.183594 145.035156 C 339.246094 141.167969 339.878906 137.230469 340.085938 133.226562 C 340.425781 128.3125 339.878906 122.613281 338.441406 116.125 C 337.148438 110.722656 336.058594 106.582031 335.175781 103.699219 C 335.082031 103.449219 334.925781 103.246094 334.710938 103.085938 C 334.492188 102.929688 334.25 102.847656 333.984375 102.835938 C 334.15625 101.820312 334.113281 101.175781 333.859375 100.90625 C 333.726562 100.714844 333.550781 100.566406 333.335938 100.46875 C 333.121094 100.375 332.898438 100.339844 332.664062 100.367188 C 332.429688 100.394531 332.21875 100.480469 332.03125 100.625 C 331.847656 100.769531 331.710938 100.949219 331.625 101.171875 C 331.417969 103.394531 331.152344 104.910156 330.828125 105.714844 L 327.582031 114.683594 C 324.789062 121.265625 323.316406 124.941406 323.15625 125.710938 C 322.183594 128.792969 321.625 131.949219 321.484375 135.179688 C 321.191406 140.789062 321.089844 144.863281 321.175781 147.402344 C 321.171875 149.257812 321.472656 152.023438 322.082031 155.703125 C 324.128906 168.261719 326.160156 174.5625 328.179688 174.601562 M 19.167969 278.320312 C 19.175781 278.765625 19.363281 279.113281 19.734375 279.359375 C 24.863281 281.878906 29.800781 284.734375 34.539062 287.929688 L 37.6875 290.214844 C 42.707031 294.449219 45.746094 296.890625 46.800781 297.542969 C 48.238281 298.601562 50.734375 300.074219 54.285156 301.96875 C 57.824219 303.820312 61.558594 305.105469 65.484375 305.828125 C 68.015625 306.289062 69.613281 306.535156 70.28125 306.566406 C 70.578125 306.53125 70.832031 306.410156 71.039062 306.195312 C 71.246094 305.984375 71.367188 305.730469 71.398438 305.433594 C 71.425781 305.136719 71.359375 304.863281 71.195312 304.613281 C 71.035156 304.363281 70.8125 304.191406 70.527344 304.097656 C 64.773438 303.445312 59.75 301.980469 55.449219 299.707031 C 53.117188 298.511719 50.859375 297.1875 48.667969 295.746094 C 48.011719 295.296875 46.980469 294.527344 45.574219 293.441406 C 41.488281 289.976562 38.804688 287.796875 37.527344 286.910156 C 36.085938 285.835938 33.238281 284.015625 28.984375 281.445312 C 26.339844 279.824219 23.605469 278.371094 20.785156 277.078125 C 19.8125 276.96875 19.269531 277.378906 19.167969 278.308594 M 355.804688 93.847656 C 355.796875 93.402344 355.605469 93.054688 355.234375 92.808594 C 350.105469 90.285156 345.171875 87.429688 340.429688 84.238281 L 337.285156 81.953125 C 332.261719 77.71875 329.222656 75.277344 328.167969 74.625 C 326.730469 73.566406 324.238281 72.09375 320.683594 70.199219 C 317.144531 68.347656 313.414062 67.0625 309.484375 66.335938 C 306.953125 65.878906 305.355469 65.632812 304.6875 65.597656 C 304.390625 65.632812 304.136719 65.757812 303.929688 65.972656 C 303.722656 66.183594 303.601562 66.4375 303.574219 66.734375 C 303.542969 67.03125 303.609375 67.304688 303.773438 67.554688 C 303.933594 67.804688 304.15625 67.976562 304.441406 68.070312 C 310.195312 68.722656 315.222656 70.1875 319.519531 72.457031 C 321.851562 73.65625 324.113281 74.976562 326.300781 76.421875 C 326.957031 76.871094 327.988281 77.640625 329.394531 78.726562 C 333.484375 82.191406 336.164062 84.367188 337.441406 85.253906 C 338.882812 86.332031 341.730469 88.152344 345.984375 90.722656 C 348.628906 92.34375 351.363281 93.796875 354.183594 95.089844 C 355.160156 95.199219 355.699219 94.789062 355.800781 93.859375 M 57.925781 235.925781 C 57.714844 236.09375 57.570312 236.308594 57.492188 236.570312 C 57.457031 236.511719 57.429688 236.960938 57.402344 237.914062 C 57.300781 239.65625 57.390625 241.394531 57.675781 243.117188 C 57.867188 244.148438 58.121094 245.164062 58.441406 246.160156 C 58.71875 247.101562 59.410156 249.136719 60.507812 252.261719 C 60.707031 252.863281 60.902344 253.527344 61.09375 254.257812 C 61.546875 256.03125 61.867188 257.832031 62.054688 259.65625 C 62.214844 261.023438 62.316406 262.207031 62.359375 263.214844 L 62.632812 273.476562 C 62.632812 273.71875 62.675781 274.492188 62.757812 275.800781 C 63.261719 280.980469 63.648438 284.300781 63.921875 285.753906 C 64.625 289.882812 65.144531 292.757812 65.484375 294.378906 L 67.617188 303.71875 C 68.066406 304.609375 68.730469 304.8125 69.601562 304.328125 C 69.789062 304.183594 69.925781 303.996094 70.011719 303.773438 C 70.097656 303.550781 70.117188 303.320312 70.070312 303.085938 C 68.695312 297.273438 67.910156 293.773438 67.71875 292.59375 C 66.542969 286.324219 65.921875 282.460938 65.851562 281 C 65.367188 276.660156 65.152344 274.347656 65.199219 274.058594 C 65.003906 268.519531 64.914062 265.113281 64.925781 263.84375 L 64.84375 262.144531 C 64.734375 260.46875 64.507812 258.578125 64.171875 256.472656 C 63.945312 255.144531 63.640625 253.835938 63.257812 252.546875 L 61.046875 245.984375 C 60.742188 245.066406 60.484375 244.128906 60.277344 243.183594 C 60.097656 242.3125 59.984375 241.433594 59.941406 240.546875 C 59.902344 239.597656 59.914062 238.398438 59.984375 236.949219 C 59.988281 236.8125 59.96875 236.679688 59.925781 236.546875 C 59.476562 235.648438 58.816406 235.4375 57.945312 235.914062 M 317.042969 136.242188 C 317.257812 136.074219 317.402344 135.859375 317.476562 135.601562 C 317.511719 135.65625 317.542969 135.210938 317.566406 134.257812 C 317.671875 132.511719 317.578125 130.777344 317.292969 129.050781 C 317.105469 128.019531 316.851562 127.003906 316.53125 126.007812 C 316.25 125.066406 315.5625 123.035156 314.464844 119.90625 C 314.265625 119.304688 314.070312 118.640625 313.878906 117.914062 C 313.425781 116.136719 313.105469 114.335938 312.914062 112.515625 C 312.753906 111.148438 312.652344 109.960938 312.613281 108.957031 L 312.339844 98.695312 C 312.335938 98.453125 312.296875 97.675781 312.210938 96.367188 C 311.710938 91.1875 311.320312 87.867188 311.050781 86.414062 C 310.347656 82.285156 309.824219 79.410156 309.488281 77.789062 L 307.355469 68.449219 C 306.902344 67.558594 306.242188 67.355469 305.371094 67.839844 C 305.179688 67.984375 305.042969 68.171875 304.960938 68.394531 C 304.875 68.617188 304.855469 68.847656 304.898438 69.082031 C 306.277344 74.894531 307.0625 78.394531 307.253906 79.574219 C 308.425781 85.84375 309.050781 89.707031 309.121094 91.167969 C 309.605469 95.507812 309.820312 97.820312 309.769531 98.109375 C 309.964844 103.648438 310.054688 107.054688 310.046875 108.324219 L 310.125 110.023438 C 310.238281 111.699219 310.460938 113.589844 310.800781 115.695312 C 311.027344 117.023438 311.328125 118.332031 311.714844 119.621094 L 313.921875 126.179688 C 314.226562 127.101562 314.484375 128.035156 314.691406 128.984375 C 314.871094 129.855469 314.984375 130.734375 315.027344 131.621094 C 315.070312 132.570312 315.054688 133.769531 314.984375 135.21875 C 314.984375 135.355469 315.003906 135.488281 315.042969 135.617188 C 315.492188 136.519531 316.152344 136.730469 317.027344 136.253906 M 14.640625 276.4375 C 14.261719 277.089844 14.320312 277.625 14.816406 278.046875 C 16.695312 278.992188 20.515625 281.734375 26.273438 286.269531 C 27.378906 287.179688 28.4375 288.148438 29.445312 289.167969 C 34.148438 294.402344 36.8125 297.238281 37.441406 297.675781 C 39.570312 299.550781 41.875 301.183594 44.351562 302.566406 C 48.132812 304.585938 52.132812 305.996094 56.34375 306.796875 C 59.964844 307.523438 64.828125 308.09375 70.9375 308.507812 C 71.171875 308.515625 71.394531 308.46875 71.601562 308.355469 C 71.808594 308.246094 71.972656 308.085938 72.09375 307.886719 C 72.449219 306.980469 72.191406 306.355469 71.324219 306.007812 C 64.535156 305.527344 59.324219 304.878906 55.695312 304.070312 C 51.582031 303.097656 48.054688 301.769531 45.105469 300.082031 C 43.136719 298.929688 41.28125 297.617188 39.542969 296.140625 C 38.964844 295.648438 38.199219 294.910156 37.242188 293.921875 C 32.566406 288.707031 30.011719 285.992188 29.574219 285.765625 C 28.261719 284.5 25.140625 282.070312 20.210938 278.488281 C 24.460938 278.703125 28.648438 279.363281 32.761719 280.457031 C 38.984375 282.460938 43.5 284.300781 46.300781 285.980469 C 48.765625 287.441406 51.089844 289.097656 53.269531 290.953125 C 54.386719 291.929688 55.363281 292.847656 56.199219 293.710938 C 58.898438 296.816406 60.898438 298.953125 62.207031 300.125 C 62.898438 300.835938 64.800781 302.429688 67.917969 304.902344 C 68.039062 305.011719 68.179688 305.09375 68.335938 305.144531 C 68.492188 305.199219 68.652344 305.222656 68.816406 305.214844 C 68.980469 305.203125 69.136719 305.164062 69.285156 305.097656 C 69.433594 305.027344 69.5625 304.933594 69.675781 304.8125 C 69.789062 304.695312 69.875 304.558594 69.933594 304.402344 C 69.992188 304.25 70.023438 304.09375 70.019531 303.925781 C 70.019531 303.761719 69.984375 303.605469 69.921875 303.453125 C 69.859375 303.300781 69.769531 303.167969 69.652344 303.050781 C 66.390625 300.453125 64.398438 298.773438 63.667969 298.011719 C 62.675781 297.136719 60.804688 295.125 58.058594 291.976562 C 57.246094 291.136719 56.25 290.195312 55.074219 289.15625 C 52.679688 287.097656 50.117188 285.273438 47.390625 283.683594 C 44.96875 282.347656 42.460938 281.203125 39.871094 280.25 C 35.925781 278.71875 32.929688 277.761719 30.871094 277.371094 C 26.738281 276.480469 22.558594 275.964844 18.332031 275.816406 C 16.085938 275.558594 14.863281 275.75 14.667969 276.390625 M 360.332031 95.730469 C 360.707031 95.078125 360.648438 94.542969 360.15625 94.121094 C 358.273438 93.175781 354.453125 90.433594 348.695312 85.898438 C 347.589844 84.988281 346.53125 84.019531 345.523438 83 C 340.820312 77.765625 338.15625 74.929688 337.527344 74.492188 C 335.398438 72.617188 333.097656 70.984375 330.621094 69.597656 C 326.839844 67.582031 322.839844 66.171875 318.628906 65.371094 C 315.007812 64.644531 310.144531 64.074219 304.035156 63.660156 C 303.800781 63.648438 303.578125 63.699219 303.371094 63.8125 C 303.164062 63.921875 303 64.082031 302.878906 64.28125 C 302.523438 65.1875 302.78125 65.8125 303.648438 66.160156 C 310.4375 66.640625 315.648438 67.289062 319.277344 68.097656 C 323.390625 69.070312 326.917969 70.398438 329.867188 72.085938 C 331.835938 73.234375 333.691406 74.550781 335.429688 76.027344 C 336.007812 76.519531 336.773438 77.257812 337.730469 78.246094 C 342.40625 83.457031 344.960938 86.175781 345.398438 86.398438 C 346.710938 87.667969 349.832031 90.09375 354.765625 93.679688 C 350.511719 93.460938 346.324219 92.804688 342.210938 91.710938 C 335.988281 89.707031 331.476562 87.863281 328.671875 86.1875 C 326.207031 84.726562 323.882812 83.070312 321.703125 81.214844 C 320.585938 80.238281 319.609375 79.316406 318.773438 78.457031 C 316.074219 75.351562 314.074219 73.210938 312.765625 72.042969 C 312.074219 71.332031 310.167969 69.738281 307.054688 67.261719 C 306.929688 67.15625 306.789062 67.074219 306.636719 67.023438 C 306.480469 66.96875 306.320312 66.945312 306.15625 66.953125 C 305.992188 66.960938 305.835938 67 305.6875 67.070312 C 305.539062 67.140625 305.40625 67.234375 305.292969 67.355469 C 305.183594 67.472656 305.097656 67.609375 305.039062 67.761719 C 304.976562 67.917969 304.949219 68.074219 304.953125 68.238281 C 304.953125 68.402344 304.984375 68.5625 305.050781 68.714844 C 305.113281 68.863281 305.203125 69 305.316406 69.117188 C 308.578125 71.710938 310.574219 73.390625 311.300781 74.15625 C 312.292969 75.03125 314.164062 77.042969 316.914062 80.191406 C 317.726562 81.03125 318.71875 81.972656 319.894531 83.011719 C 322.289062 85.070312 324.851562 86.894531 327.582031 88.484375 C 330 89.820312 332.507812 90.964844 335.101562 91.917969 C 339.042969 93.445312 342.042969 94.40625 344.101562 94.796875 C 348.234375 95.683594 352.410156 96.203125 356.636719 96.351562 C 358.882812 96.605469 360.105469 96.414062 360.300781 95.777344 M 59.371094 238.640625 C 60.867188 242.027344 62.09375 244.632812 63.054688 246.464844 L 64.722656 249.542969 C 67.429688 253.992188 68.871094 256.4375 69.042969 256.882812 C 70.785156 260.28125 71.847656 262.550781 72.226562 263.691406 C 74.117188 269.066406 74.816406 274.183594 74.328125 279.042969 C 74.195312 280.421875 73.980469 281.785156 73.675781 283.132812 C 72.082031 288.964844 70.972656 293.214844 70.355469 295.882812 C 69.859375 297.824219 69.503906 299.789062 69.289062 301.78125 C 64.996094 296.929688 62.371094 292.921875 61.410156 289.757812 C 60.296875 286.867188 59.242188 282.84375 58.238281 277.6875 C 57.464844 273.96875 57.011719 270.210938 56.886719 266.414062 C 56.742188 262.570312 56.859375 258.734375 57.230469 254.90625 C 57.34375 253.617188 57.488281 252.300781 57.664062 250.960938 C 58.890625 242.835938 59.457031 238.761719 59.363281 238.738281 M 57.421875 231.617188 C 57.226562 231.679688 57.066406 231.792969 56.945312 231.957031 C 56.820312 232.121094 56.75 232.304688 56.742188 232.511719 C 57.070312 234.476562 57.101562 236.449219 56.835938 238.425781 C 56.804688 238.941406 56.691406 239.921875 56.503906 241.371094 C 55.359375 248.984375 54.835938 252.65625 54.925781 252.386719 C 54.664062 254.710938 54.472656 257.222656 54.347656 259.914062 C 54.121094 266.3125 54.519531 272.035156 55.539062 277.085938 C 57.027344 284.980469 58.660156 290.59375 60.429688 293.921875 C 61.742188 296.324219 63.269531 298.582031 65.011719 300.691406 C 66.585938 302.574219 67.597656 303.734375 68.039062 304.171875 C 68.390625 304.457031 68.785156 304.554688 69.226562 304.460938 C 69.277344 305.296875 69.375 306.125 69.53125 306.945312 C 69.585938 307.253906 69.738281 307.507812 69.984375 307.707031 C 70.230469 307.902344 70.507812 307.996094 70.824219 307.984375 C 71.140625 307.972656 71.414062 307.863281 71.644531 307.648438 C 71.875 307.433594 72.007812 307.167969 72.042969 306.855469 C 71.582031 304.550781 71.664062 301.910156 72.285156 298.933594 C 73.304688 294.328125 74.53125 289.515625 75.964844 284.496094 C 76.269531 283.257812 76.511719 282.011719 76.6875 280.75 C 77.171875 277.0625 77.089844 273.386719 76.445312 269.726562 C 75.695312 265.316406 74.242188 261.152344 72.082031 257.238281 C 71.605469 256.273438 71.070312 255.261719 70.472656 254.203125 C 67.636719 249.570312 65.9375 246.644531 65.378906 245.417969 C 64.636719 243.96875 64.035156 242.753906 63.582031 241.769531 L 59.210938 232.25 C 59.136719 232.089844 59.035156 231.945312 58.90625 231.824219 C 58.777344 231.703125 58.625 231.613281 58.460938 231.554688 C 58.292969 231.492188 58.121094 231.46875 57.941406 231.476562 C 57.765625 231.488281 57.59375 231.53125 57.4375 231.613281 M 315.601562 133.53125 C 314.105469 130.140625 312.875 127.535156 311.914062 125.707031 L 310.25 122.625 C 307.539062 118.175781 306.097656 115.730469 305.925781 115.285156 C 304.183594 111.890625 303.121094 109.621094 302.742188 108.476562 C 300.851562 103.101562 300.152344 97.984375 300.640625 93.125 C 300.773438 91.746094 300.992188 90.386719 301.292969 89.035156 C 302.890625 83.203125 303.996094 78.953125 304.613281 76.285156 C 305.109375 74.34375 305.464844 72.378906 305.683594 70.386719 C 309.972656 75.238281 312.601562 79.246094 313.5625 82.414062 C 314.671875 85.304688 315.726562 89.324219 316.730469 94.480469 C 317.503906 98.199219 317.957031 101.957031 318.085938 105.753906 C 318.226562 109.597656 318.113281 113.433594 317.742188 117.265625 C 317.628906 118.550781 317.484375 119.867188 317.304688 121.210938 C 316.078125 129.332031 315.511719 133.40625 315.609375 133.433594 M 317.546875 140.554688 C 317.742188 140.488281 317.902344 140.375 318.027344 140.210938 C 318.152344 140.046875 318.21875 139.863281 318.230469 139.660156 C 317.902344 137.691406 317.867188 135.71875 318.132812 133.742188 C 318.164062 133.226562 318.277344 132.246094 318.464844 130.796875 C 319.609375 123.183594 320.132812 119.511719 320.042969 119.78125 C 320.304688 117.457031 320.496094 114.945312 320.621094 112.253906 C 320.847656 105.855469 320.449219 100.132812 319.429688 95.085938 C 317.941406 87.1875 316.308594 81.574219 314.539062 78.246094 C 313.226562 75.84375 311.699219 73.589844 309.957031 71.476562 C 308.382812 69.59375 307.371094 68.433594 306.929688 67.996094 C 306.578125 67.710938 306.183594 67.613281 305.742188 67.707031 C 305.691406 66.871094 305.59375 66.046875 305.4375 65.222656 C 305.382812 64.914062 305.230469 64.660156 304.984375 64.464844 C 304.738281 64.265625 304.457031 64.171875 304.144531 64.183594 C 303.828125 64.195312 303.554688 64.308594 303.324219 64.523438 C 303.09375 64.738281 302.960938 65 302.925781 65.3125 C 303.386719 67.621094 303.304688 70.257812 302.679688 73.234375 C 301.664062 77.839844 300.4375 82.652344 299.003906 87.671875 C 298.699219 88.910156 298.457031 90.160156 298.28125 91.421875 C 297.796875 95.105469 297.875 98.78125 298.523438 102.445312 C 299.273438 106.851562 300.726562 111.015625 302.886719 114.933594 C 303.363281 115.898438 303.898438 116.910156 304.496094 117.96875 C 307.332031 122.597656 309.03125 125.527344 309.59375 126.75 C 310.332031 128.199219 310.933594 129.414062 311.386719 130.398438 L 315.757812 139.921875 C 315.832031 140.082031 315.933594 140.226562 316.0625 140.347656 C 316.195312 140.46875 316.34375 140.558594 316.511719 140.617188 C 316.675781 140.679688 316.851562 140.703125 317.027344 140.695312 C 317.207031 140.683594 317.375 140.640625 317.535156 140.558594 M 191.992188 21.464844 C 169.660156 21.796875 148.914062 25.886719 129.75 33.734375 C 106.703125 41.636719 85.839844 54.714844 67.164062 72.972656 C 35.894531 104.90625 19.878906 143.605469 19.113281 189.066406 C 19.640625 234.324219 35.808594 273.214844 67.613281 305.738281 C 99.808594 337.007812 138.511719 352.941406 183.71875 353.542969 C 206.046875 353.210938 226.789062 349.125 245.949219 341.277344 C 269 333.378906 289.867188 320.296875 308.546875 302.035156 C 339.816406 270.101562 355.832031 231.402344 356.597656 185.941406 C 356.070312 140.683594 339.902344 101.792969 308.097656 69.273438 C 275.902344 38 237.199219 22.066406 191.992188 21.464844 Z M 191.699219 24.007812 C 235.835938 24.359375 273.96875 39.984375 306.109375 70.875 C 337.273438 102.394531 353.253906 140.617188 354.058594 185.542969 C 353.601562 229.8125 337.945312 267.929688 307.085938 299.898438 C 300.273438 306.578125 292.984375 312.683594 285.210938 318.210938 C 290.300781 314.1875 295.160156 309.910156 299.796875 305.371094 C 331.089844 273.46875 347.136719 234.785156 347.9375 189.324219 L 347.9375 189.070312 C 347.699219 170.078125 344.710938 152.207031 338.964844 135.460938 L 338.960938 135.460938 C 338.871094 136.710938 338.679688 137.945312 338.394531 139.167969 C 338.277344 139.652344 338.132812 140.164062 337.96875 140.707031 C 342.589844 155.695312 345.0625 171.636719 345.394531 188.527344 L 345.394531 189.070312 C 344.863281 233.339844 329.148438 271.425781 298.242188 303.335938 C 281.976562 319.175781 264.152344 331.066406 244.777344 339.011719 L 244.773438 339.011719 C 228.535156 344.566406 211.25 347.476562 192.917969 347.746094 C 148.785156 347.457031 110.625 331.894531 78.445312 301.058594 C 76.289062 298.882812 74.199219 296.671875 72.1875 294.433594 C 72.167969 294.582031 72.148438 294.730469 72.128906 294.882812 C 71.992188 295.855469 71.839844 296.761719 71.664062 297.601562 C 73.1875 299.273438 74.753906 300.929688 76.359375 302.566406 C 108.574219 333.8125 147.289062 349.71875 192.492188 350.289062 C 195.488281 350.242188 198.453125 350.128906 201.386719 349.945312 L 201.390625 349.945312 C 195.707031 350.574219 189.914062 350.925781 184.011719 351.003906 C 139.875 350.644531 101.742188 335.023438 69.601562 304.132812 C 38.4375 272.613281 22.457031 234.390625 21.652344 189.464844 C 22.109375 145.195312 37.765625 107.078125 68.625 75.109375 C 75.433594 68.429688 82.726562 62.324219 90.496094 56.796875 C 85.410156 60.820312 80.546875 65.097656 75.910156 69.632812 C 44.621094 101.539062 28.574219 140.222656 27.773438 185.683594 L 27.773438 185.9375 C 28.011719 204.933594 31 222.804688 36.746094 239.554688 C 36.839844 238.300781 37.027344 237.0625 37.316406 235.839844 C 37.429688 235.355469 37.574219 234.847656 37.742188 234.308594 C 33.121094 219.316406 30.644531 203.375 30.316406 186.480469 L 30.316406 185.9375 C 30.847656 141.671875 46.5625 103.582031 77.46875 71.671875 C 93.730469 55.835938 111.546875 43.949219 130.917969 36 C 147.164062 30.445312 164.453125 27.53125 182.792969 27.261719 C 226.925781 27.554688 265.082031 43.117188 297.261719 73.949219 C 299.421875 76.125 301.507812 78.335938 303.523438 80.578125 C 303.542969 80.425781 303.5625 80.277344 303.582031 80.125 C 303.714844 79.15625 303.871094 78.25 304.046875 77.410156 C 302.523438 75.734375 300.957031 74.078125 299.351562 72.441406 C 267.136719 41.195312 228.425781 25.289062 183.21875 24.71875 C 180.222656 24.765625 177.257812 24.878906 174.320312 25.0625 C 180.007812 24.4375 185.800781 24.085938 191.703125 24.007812 Z M 47.105469 257.765625 C 46.933594 258.398438 46.839844 258.761719 46.824219 258.855469 C 46.644531 260.101562 46.476562 261.066406 46.320312 261.757812 C 49.929688 268.621094 54.003906 275.195312 58.542969 281.480469 C 58.304688 279.894531 58.09375 278.144531 57.902344 276.226562 C 53.886719 270.316406 50.289062 264.164062 47.105469 257.769531 Z M 42.617188 247.875 C 42.5625 248.25 42.53125 248.539062 42.515625 248.746094 L 42.6875 248.320312 C 42.703125 248.265625 42.714844 248.207031 42.730469 248.152344 Z M 333.191406 126.273438 L 333.019531 126.6875 C 333.007812 126.746094 332.992188 126.804688 332.980469 126.859375 L 333.09375 127.132812 C 333.144531 126.765625 333.179688 126.476562 333.195312 126.273438 Z M 317.167969 93.53125 C 317.40625 95.117188 317.617188 96.867188 317.8125 98.789062 C 321.828125 104.695312 325.425781 110.847656 328.605469 117.242188 C 328.777344 116.609375 328.871094 116.246094 328.886719 116.152344 C 329.066406 114.910156 329.234375 113.945312 329.390625 113.253906 L 329.394531 113.253906 C 325.785156 106.390625 321.707031 99.816406 317.167969 93.53125 Z M 317.167969 93.53125 " fill-opacity="1" fill-rule="nonzero"/></g><g fill="currentColor" fill-opacity="1"><g transform="translate(132.499871, 205.676477)"><g><path d="M 5.3125 35.15625 C 2.800781 36.78125 0.0703125 38.253906 -2.875 39.578125 C -5.820312 40.898438 -8.769531 41.929688 -11.71875 42.671875 L -11.71875 41.5625 C -5.96875 39.800781 -1.398438 36.632812 1.984375 32.0625 C 5.378906 27.488281 8.035156 22.328125 9.953125 16.578125 C 11.867188 10.828125 13.117188 4.859375 13.703125 -1.328125 C 14.296875 -7.515625 14.59375 -13.113281 14.59375 -18.125 L 14.59375 -91.546875 C 14.59375 -94.929688 13.960938 -98.28125 12.703125 -101.59375 C 11.453125 -104.914062 8.910156 -107.164062 5.078125 -108.34375 L 45.984375 -108.34375 C 42.148438 -107.164062 39.609375 -104.914062 38.359375 -101.59375 C 37.109375 -98.28125 36.484375 -94.929688 36.484375 -91.546875 L 36.484375 -18.125 C 36.484375 -6.78125 33.679688 3.457031 28.078125 12.59375 C 22.472656 21.738281 14.882812 29.257812 5.3125 35.15625 Z M 5.3125 35.15625 "/></g></g></g><g fill="currentColor" fill-opacity="1"><g transform="translate(164.999576, 278.350055)"><g><path d="M 107.4375 -33.09375 C 107.4375 -27 106.238281 -21.8125 103.84375 -17.53125 C 101.457031 -13.25 98.289062 -9.832031 94.34375 -7.28125 C 90.394531 -4.726562 85.867188 -2.875 80.765625 -1.71875 C 75.660156 -0.570312 70.390625 0 64.953125 0 L 5.4375 0 C 7.570312 -0.65625 9.335938 -1.679688 10.734375 -3.078125 C 12.140625 -4.484375 13.210938 -6.128906 13.953125 -8.015625 C 14.691406 -9.910156 15.1875 -11.890625 15.4375 -13.953125 C 15.6875 -16.015625 15.8125 -18.03125 15.8125 -20 L 15.8125 -102.734375 C 15.8125 -106.523438 15.109375 -110.226562 13.703125 -113.84375 C 12.304688 -117.46875 9.550781 -119.941406 5.4375 -121.265625 L 51.125 -121.015625 C 46.84375 -119.859375 44 -117.382812 42.59375 -113.59375 C 41.195312 -109.8125 40.5 -106.03125 40.5 -102.25 L 40.5 -65.6875 L 53.59375 -65.6875 C 58.863281 -65.6875 63.347656 -67.085938 67.046875 -69.890625 C 70.753906 -72.691406 73.757812 -76.234375 76.0625 -80.515625 C 78.375 -84.796875 80.0625 -89.445312 81.125 -94.46875 C 82.195312 -99.488281 82.734375 -104.140625 82.734375 -108.421875 C 82.734375 -116.160156 81.5 -123.320312 79.03125 -129.90625 C 76.5625 -136.488281 73.0625 -142.207031 68.53125 -147.0625 C 64 -151.925781 58.523438 -155.753906 52.109375 -158.546875 C 45.691406 -161.347656 38.53125 -162.75 30.625 -162.75 C 19.425781 -162.75 9.296875 -161.0625 0.234375 -157.6875 C -8.816406 -154.3125 -16.550781 -149.453125 -22.96875 -143.109375 C -29.382812 -136.773438 -34.320312 -129.078125 -37.78125 -120.015625 C -41.238281 -110.960938 -42.96875 -100.84375 -42.96875 -89.65625 C -42.96875 -81.75 -42.019531 -73.597656 -40.125 -65.203125 C -38.238281 -56.804688 -35.234375 -49.148438 -31.109375 -42.234375 C -26.992188 -35.316406 -21.644531 -29.675781 -15.0625 -25.3125 C -8.476562 -20.945312 -0.492188 -18.765625 8.890625 -18.765625 L 10.625 -19.015625 L 11.609375 -19.015625 L 9.625 -16.546875 C 0.570312 -16.546875 -8.023438 -18.519531 -16.171875 -22.46875 C -24.328125 -26.425781 -31.53125 -31.613281 -37.78125 -38.03125 C -44.039062 -44.457031 -49.019531 -51.867188 -52.71875 -60.265625 C -56.425781 -68.660156 -58.28125 -77.300781 -58.28125 -86.1875 C -58.28125 -99.195312 -55.972656 -110.640625 -51.359375 -120.515625 C -46.753906 -130.398438 -40.414062 -138.632812 -32.34375 -145.21875 C -24.28125 -151.800781 -14.859375 -156.78125 -4.078125 -160.15625 C 6.703125 -163.53125 18.1875 -165.21875 30.375 -165.21875 C 38.601562 -165.21875 47.082031 -164.023438 55.8125 -161.640625 C 64.539062 -159.253906 72.523438 -155.710938 79.765625 -151.015625 C 87.015625 -146.328125 92.941406 -140.398438 97.546875 -133.234375 C 102.160156 -126.078125 104.46875 -117.804688 104.46875 -108.421875 C 104.46875 -97.554688 102.53125 -88.75 98.65625 -82 C 94.789062 -75.25 87.753906 -69.734375 77.546875 -65.453125 C 81.660156 -64.460938 85.53125 -63.0625 89.15625 -61.25 C 92.78125 -59.4375 95.945312 -57.210938 98.65625 -54.578125 C 101.375 -51.941406 103.515625 -48.851562 105.078125 -45.3125 C 106.648438 -41.78125 107.4375 -37.707031 107.4375 -33.09375 Z M 40.5 -1.96875 L 56.3125 -1.96875 C 61.082031 -1.96875 65.113281 -2.789062 68.40625 -4.4375 C 71.695312 -6.09375 74.410156 -8.316406 76.546875 -11.109375 C 78.691406 -13.910156 80.257812 -17.203125 81.25 -20.984375 C 82.238281 -24.773438 82.734375 -28.8125 82.734375 -33.09375 C 82.734375 -44.125 79.8125 -51.984375 73.96875 -56.671875 C 68.125 -61.367188 59.929688 -63.71875 49.390625 -63.71875 L 40.5 -63.71875 Z M 40.5 -1.96875 "/></g></g></g></svg>